<?xml version="1.0" standalone="no"?>
<!DOCTYPE svg PUBLIC "-//W3C//DTD SVG 20010904//EN"
 "http://www.w3.org/TR/2001/REC-SVG-20010904/DTD/svg10.dtd">
<svg version="1.0" xmlns="http://www.w3.org/2000/svg"
 width="603.000000pt" height="220.000000pt" viewBox="0 0 603.000000 220.000000"
 preserveAspectRatio="xMidYMid meet">

<g transform="translate(0.000000,220.000000) scale(0.100000,-0.100000)"
fill="#000000" stroke="none">
<path d="M90 1690 l0 -420 30 0 c28 0 30 -3 30 -35 0 -31 3 -35 25 -35 l25 0
0 395 0 395 398 2 397 3 3 28 c3 25 1 27 -32 27 -30 0 -35 3 -38 28 l-3 27
-417 3 -418 2 0 -420z"/>
<path d="M1190 2080 c0 -28 -3 -30 -35 -30 -32 0 -35 -2 -35 -30 l0 -30 400 0
400 0 0 -395 c0 -388 0 -395 20 -395 16 0 20 7 20 35 0 33 2 35 35 35 l35 0
-2 418 -3 417 -417 3 -418 2 0 -30z"/>
<path d="M320 1560 c0 -313 0 -320 20 -320 16 0 20 -7 20 -30 0 -23 4 -30 20
-30 19 0 20 8 22 306 l3 305 303 -1 302 -1 0 26 c0 20 -5 25 -25 25 -18 0 -25
5 -25 20 0 20 -7 20 -320 20 l-320 0 0 -320z"/>
<path d="M1160 1860 c0 -15 -7 -20 -25 -20 -20 0 -25 -5 -25 -25 l0 -25 305 0
305 0 0 -305 c0 -264 2 -305 15 -305 10 0 15 10 15 30 0 25 4 30 25 30 l25 0
0 320 0 320 -320 0 c-313 0 -320 0 -320 -20z"/>
<path d="M520 1445 c0 -202 2 -235 15 -235 8 0 15 -9 15 -20 0 -11 7 -20 15
-20 13 0 15 32 15 225 l0 225 220 0 c189 0 220 2 220 15 0 8 -9 15 -20 15 -11
0 -20 7 -20 15 0 13 -32 15 -230 15 l-230 0 0 -235z"/>
<path d="M1130 1666 c0 -7 -9 -16 -20 -19 -11 -3 -20 -10 -20 -16 0 -8 69 -11
225 -11 l225 0 0 -225 c0 -143 4 -225 10 -225 6 0 10 9 10 20 0 13 7 20 20 20
19 0 20 7 20 235 l0 235 -235 0 c-193 0 -235 -2 -235 -14z"/>
<path d="M2823 1623 c15 -4 17 -23 17 -208 0 -203 0 -204 -22 -208 -13 -2 18
-5 67 -5 63 -1 83 2 68 8 -22 9 -23 15 -23 120 0 107 1 112 26 135 15 14 34
25 43 25 35 0 41 -21 41 -151 0 -113 -2 -128 -17 -132 -10 -3 20 -5 67 -5 47
0 77 2 68 5 -14 3 -17 22 -20 124 -3 118 -4 121 -31 145 -33 28 -111 33 -143
9 -10 -8 -22 -15 -26 -15 -5 0 -8 36 -8 80 l0 80 -62 -1 c-35 -1 -55 -3 -45
-6z"/>
<path d="M4373 1623 c14 -4 17 -16 17 -79 l0 -75 -22 15 c-27 19 -87 21 -123
4 -90 -41 -94 -227 -5 -273 38 -19 99 -19 128 1 20 14 22 14 22 0 0 -13 12
-16 68 -15 37 1 57 4 45 6 -23 4 -23 5 -23 214 l0 209 -62 -1 c-35 -1 -55 -3
-45 -6z m-3 -153 c17 -17 20 -33 20 -100 0 -47 -6 -95 -14 -114 -18 -44 -51
-55 -80 -27 -19 19 -21 33 -21 120 0 83 3 102 19 120 24 26 50 27 76 1z"/>
<path d="M4933 1623 c15 -4 17 -23 18 -216 1 -117 4 -201 8 -187 9 35 43 37
84 6 76 -58 181 -18 206 78 19 75 -11 160 -64 184 -36 17 -96 15 -123 -4 l-22
-15 0 80 0 81 -62 -1 c-35 -1 -55 -3 -45 -6z m202 -153 c23 -25 32 -147 16
-207 -9 -33 -18 -44 -38 -49 -21 -6 -31 -1 -50 20 -21 24 -23 37 -23 122 0 81
3 97 20 114 25 25 52 25 75 0z"/>
<path d="M5868 1623 c8 -3 12 -29 12 -80 0 -73 -1 -75 -18 -60 -12 11 -36 17
-64 17 -79 0 -128 -58 -128 -150 0 -92 49 -150 128 -150 28 0 52 6 64 17 17
15 18 15 18 0 0 -14 11 -17 68 -16 37 1 59 3 50 6 -16 4 -18 23 -18 214 l0
209 -62 -1 c-35 0 -57 -3 -50 -6z m-10 -149 c20 -14 22 -23 22 -113 0 -84 -3
-102 -21 -125 -41 -53 -82 -23 -94 70 -9 68 3 142 26 165 23 23 38 24 67 3z"/>
<path d="M2555 1598 c-134 -346 -151 -383 -181 -389 -18 -4 -6 -7 36 -6 36 0
52 2 37 4 -30 5 -30 10 -1 81 13 32 13 32 83 32 l71 0 20 -40 c26 -51 25 -68
-2 -73 -13 -2 20 -4 72 -4 52 0 86 2 75 4 -16 3 -40 48 -105 199 -46 107 -88
197 -92 200 -4 3 -10 -1 -13 -8z m14 -196 l30 -72 -65 0 c-35 0 -64 3 -64 8
-1 20 55 151 62 144 4 -4 21 -40 37 -80z"/>
<path d="M690 1350 c0 -137 2 -153 20 -172 l20 -22 0 152 0 152 155 0 c97 0
155 4 155 10 0 6 -7 10 -15 10 -8 0 -15 5 -15 10 0 6 -60 10 -160 10 l-160 0
0 -150z"/>
<path d="M1110 1490 c0 -5 -7 -10 -15 -10 -8 0 -15 -4 -15 -10 0 -6 57 -10
150 -10 l150 0 0 -150 c0 -93 4 -150 10 -150 6 0 10 7 10 15 0 8 5 15 10 15 6
0 10 58 10 155 l0 155 -155 0 c-97 0 -155 -4 -155 -10z"/>
<path d="M3228 1493 c22 -4 22 -7 22 -143 0 -136 0 -139 -22 -143 -13 -2 18
-5 67 -5 63 -1 83 2 68 8 -22 9 -23 15 -23 120 0 104 1 112 25 135 13 14 32
25 43 25 37 0 42 -20 42 -151 0 -113 -2 -128 -17 -132 -10 -3 20 -5 67 -5 47
0 77 2 68 5 -16 4 -18 19 -18 123 0 116 1 119 26 139 32 25 47 26 68 5 13 -12
16 -40 16 -139 0 -120 -1 -124 -22 -128 -13 -2 18 -4 67 -4 50 0 80 2 68 4
-22 4 -23 8 -23 114 0 114 -12 160 -45 173 -37 14 -112 6 -139 -15 l-26 -20
-26 20 c-32 25 -110 29 -140 6 -25 -19 -34 -19 -34 0 0 12 -14 15 -67 14 -38
-1 -58 -4 -45 -6z"/>
<path d="M3899 1477 c-90 -60 -83 -208 11 -258 45 -24 127 -25 156 -1 25 20
48 61 40 70 -3 3 -6 0 -6 -6 0 -6 -12 -24 -26 -41 -20 -25 -34 -31 -63 -31
-51 0 -71 24 -78 94 l-6 56 98 0 97 0 -7 38 c-12 67 -49 102 -108 102 -20 0
-20 -1 -3 -13 12 -9 20 -31 24 -65 l5 -52 -53 0 -53 0 7 48 c4 30 13 53 27 65
l21 17 -24 0 c-14 0 -40 -10 -59 -23z"/>
<path d="M4609 1471 c-33 -33 -36 -52 -13 -75 37 -38 77 -9 72 51 -3 37 -2 38
32 38 l35 0 3 -60 3 -60 -63 -12 c-78 -15 -113 -48 -104 -97 4 -17 14 -37 23
-43 24 -18 104 -16 132 3 22 16 24 16 33 0 13 -24 99 -22 121 2 10 10 17 24
17 31 0 7 -8 3 -18 -9 -31 -39 -42 -17 -42 84 0 153 -18 176 -136 176 -59 0
-68 -3 -95 -29z m134 -173 c5 -56 -4 -78 -32 -78 -26 0 -41 21 -41 59 0 38 23
71 50 71 14 0 19 -12 23 -52z"/>
<path d="M5373 1490 c-54 -22 -66 -94 -17 -106 37 -9 56 12 52 60 -3 41 -3 41
32 41 l35 0 3 -62 c3 -60 2 -63 -20 -63 -43 0 -100 -22 -125 -46 -20 -20 -24
-32 -19 -57 3 -18 14 -38 23 -44 24 -18 104 -16 132 3 22 16 24 16 33 0 13
-24 99 -22 121 2 10 10 17 24 17 31 0 7 -8 3 -18 -9 -31 -39 -42 -17 -42 85 0
99 -10 140 -38 161 -19 15 -135 18 -169 4z m110 -192 c5 -56 -4 -78 -32 -78
-27 0 -41 21 -41 61 0 40 21 69 49 69 15 0 19 -11 24 -52z"/>
<path d="M714 1101 c3 -5 -1 -11 -9 -15 -12 -4 -15 -32 -15 -161 l0 -155 155
0 c133 0 158 2 175 18 20 16 15 17 -132 22 l-153 5 -3 148 c-2 92 -6 147 -13
147 -6 0 -8 -4 -5 -9z"/>
<path d="M1380 960 l0 -150 -150 0 c-93 0 -150 -4 -150 -10 0 -5 7 -10 15 -10
8 0 15 -4 15 -10 0 -6 58 -10 155 -10 l155 0 0 156 c0 121 -3 159 -14 170 -8
8 -17 14 -20 14 -3 0 -6 -67 -6 -150z"/>
<path d="M550 1080 c0 -11 -7 -20 -15 -20 -13 0 -15 -33 -15 -235 l0 -235 230
0 c204 0 230 2 230 16 0 9 9 18 20 21 11 3 20 12 20 19 0 12 -39 14 -220 14
l-220 0 0 220 c0 189 -2 220 -15 220 -8 0 -15 -9 -15 -20z"/>
<path d="M1540 880 l0 -220 -222 -2 c-166 -2 -222 -6 -226 -15 -2 -8 5 -13 16
-13 11 0 22 -9 25 -20 5 -19 14 -20 236 -20 l231 0 0 235 c0 208 -2 235 -16
235 -9 0 -18 9 -21 20 -16 60 -23 -3 -23 -200z"/>
<path d="M360 1064 c0 -17 -6 -28 -20 -31 -19 -5 -20 -14 -20 -324 l0 -319
320 0 320 0 0 25 c0 20 5 25 25 25 18 0 25 5 25 20 0 20 -7 20 -305 20 l-305
0 0 305 c0 298 0 305 -20 305 -15 0 -20 -7 -20 -26z"/>
<path d="M1720 785 l0 -305 -305 0 c-298 0 -305 0 -305 -20 0 -15 7 -20 25
-20 20 0 25 -5 25 -25 l0 -25 320 0 320 0 0 319 0 320 -22 3 c-17 2 -24 11
-26 31 -2 15 -9 27 -18 27 -12 0 -14 -47 -14 -305z"/>
<path d="M148 1038 c-2 -28 -8 -34 -30 -36 l-28 -3 0 -415 0 -414 420 0 420 0
0 25 c0 22 4 25 35 25 32 0 35 2 35 30 l0 30 -400 0 -400 0 0 395 0 395 -24 0
c-21 0 -25 -6 -28 -32z"/>
<path d="M1920 675 l0 -395 -400 0 -400 0 0 -30 c0 -28 3 -30 35 -30 31 0 35
-3 35 -25 l0 -25 420 0 420 0 0 414 0 415 -32 3 c-29 3 -33 7 -36 36 -2 24 -8
32 -23 32 -18 0 -19 -11 -19 -395z"/>
<path d="M3177 1042 c-22 -24 -21 -45 1 -65 24 -22 45 -21 65 1 22 24 21 45
-1 65 -24 22 -45 21 -65 -1z"/>
<path d="M4566 1044 c-31 -30 -9 -84 34 -84 11 0 27 11 36 25 15 23 15 27 0
50 -19 29 -47 32 -70 9z"/>
<path d="M2368 1003 c21 -4 22 -8 22 -134 0 -146 11 -189 57 -212 72 -37 169
-29 214 19 23 24 24 33 27 174 3 128 6 149 20 153 10 3 -8 5 -38 5 -41 0 -47
-2 -25 -7 l30 -6 3 -105 c4 -136 -4 -187 -33 -216 -36 -36 -97 -33 -136 5
l-29 29 0 145 c0 130 2 146 18 150 9 3 -21 5 -68 4 -47 0 -75 -2 -62 -4z"/>
<path d="M4801 972 c-14 -33 -33 -48 -80 -63 -21 -6 -22 -7 -6 -8 19 -1 20 -8
21 -111 0 -100 2 -113 22 -133 28 -28 92 -29 121 -3 12 11 21 23 21 29 0 5 -9
-1 -19 -14 -16 -20 -23 -22 -38 -13 -15 10 -18 28 -21 127 l-3 116 33 4 33 4
-32 1 c-31 2 -32 4 -35 50 l-3 47 -14 -33z"/>
<path d="M2913 905 c-18 -8 -33 -10 -33 -5 0 6 -28 9 -62 9 -35 -1 -55 -3 -45
-6 15 -4 17 -19 17 -128 0 -109 -2 -124 -17 -128 -10 -3 18 -5 62 -5 44 0 72
2 63 5 -16 4 -18 18 -18 112 0 92 3 110 18 124 25 23 59 21 72 -2 5 -11 10
-67 10 -125 0 -91 -2 -105 -17 -109 -10 -3 18 -5 62 -4 44 0 70 2 58 4 -22 4
-23 9 -23 111 -1 116 -7 134 -54 152 -36 13 -54 12 -93 -5z"/>
<path d="M3711 902 c-53 -27 -76 -65 -75 -125 0 -83 40 -127 129 -142 l40 -7
-35 19 c-35 19 -47 43 -49 101 l-1 32 85 0 85 0 0 28 c0 59 -57 112 -120 112
-14 0 -40 -8 -59 -18z m83 -8 c10 -9 16 -33 16 -60 l0 -44 -45 0 c-41 0 -45 2
-45 25 0 37 27 95 44 95 8 0 22 -7 30 -16z"/>
<path d="M4089 891 l-29 -29 0 24 c0 23 -3 24 -62 23 -35 -1 -55 -3 -45 -6 15
-4 17 -19 17 -128 0 -109 -2 -124 -17 -128 -10 -3 20 -5 67 -4 47 0 75 2 63 4
-22 4 -23 9 -23 84 0 121 41 192 72 124 12 -27 37 -32 56 -13 19 19 14 45 -10
62 -33 23 -56 20 -89 -13z"/>
<path d="M4310 909 c-42 -17 -60 -40 -60 -77 0 -49 22 -69 101 -92 38 -12 73
-28 78 -38 12 -21 -4 -52 -27 -53 -11 0 -12 -2 -4 -6 19 -7 61 24 73 54 21 56
-13 89 -123 123 -42 13 -61 32 -56 57 4 21 57 38 92 29 22 -5 26 -12 26 -40 0
-38 19 -51 46 -31 15 11 16 17 7 38 -18 39 -98 58 -153 36z"/>
<path d="M3148 903 c21 -4 22 -8 22 -128 0 -120 -1 -124 -22 -128 -13 -2 13
-4 57 -4 44 -1 72 1 63 4 -16 4 -18 19 -18 134 l0 129 -62 -1 c-35 -1 -53 -4
-40 -6z"/>
<path d="M3320 901 c8 -5 44 -68 80 -140 35 -72 67 -131 71 -131 4 0 33 61 64
135 34 79 64 136 74 138 9 3 -6 5 -34 4 -27 0 -37 -2 -22 -4 17 -3 27 -9 24
-16 -36 -91 -62 -147 -67 -147 -4 0 -23 35 -42 78 l-35 77 26 6 c14 4 -14 7
-64 8 -56 0 -84 -3 -75 -8z"/>
<path d="M4533 903 c15 -4 17 -19 17 -128 0 -109 -2 -124 -17 -128 -10 -3 18
-5 62 -5 44 0 72 2 63 5 -16 4 -18 19 -18 134 l0 129 -62 -1 c-35 -1 -55 -3
-45 -6z"/>
<path d="M4920 904 c9 -3 47 -67 84 -142 l69 -138 -17 -32 c-18 -35 -37 -40
-56 -17 -28 34 -87 -6 -64 -42 6 -10 25 -19 42 -21 48 -5 68 25 146 213 50
120 75 169 90 175 15 6 7 9 -29 8 -27 0 -40 -3 -27 -5 28 -6 27 -14 -12 -98
l-34 -70 -36 78 c-20 43 -36 80 -36 82 0 2 10 6 23 8 12 2 -18 4 -68 4 -49 1
-83 -1 -75 -3z"/>
<path d="M4244 715 c-15 -37 27 -71 96 -79 l45 -6 -42 11 c-40 9 -43 13 -43
44 0 41 -43 65 -56 30z"/>
<path d="M3860 681 c-5 -11 -19 -23 -31 -26 -11 -4 -18 -9 -16 -12 9 -8 46 16
57 37 6 11 8 20 6 20 -3 0 -10 -9 -16 -19z"/>
</g>
</svg>
